HIERARCHY
ROOT Hips
{
	OFFSET -0.001795 -0.223333 0.028219
	CHANNELS 6 Xposition Yposition Zposition Zrotation Yrotation Xrotation 
	JOINT LeftUpLeg
	{
		OFFSET 0.069520 -0.091406 -0.006815
		CHANNELS 3 Zrotation Yrotation Xrotation
		JOINT LeftLeg
		{
			OFFSET 0.034277 -0.375199 -0.004496
			CHANNELS 3 Zrotation Yrotation Xrotation
			JOINT LeftFoot
			{
				OFFSET -0.013596 -0.397961 -0.043693
				CHANNELS 3 Zrotation Yrotation Xrotation
				JOINT LeftToe
				{
					OFFSET 0.026358 -0.055791 0.119288
					CHANNELS 3 Zrotation Yrotation Xrotation
					End Site
					{
						OFFSET 0.000000 0.000000 0.000000
					}
				}
			}
		}
	}
	JOINT RightUpLeg
	{
		OFFSET -0.067670 -0.090522 -0.004320
		CHANNELS 3 Zrotation Yrotation Xrotation
		JOINT RightLeg
		{
			OFFSET -0.038290 -0.382569 -0.008850
			CHANNELS 3 Zrotation Yrotation Xrotation
			JOINT RightFoot
			{
				OFFSET 0.015774 -0.398415 -0.042312
				CHANNELS 3 Zrotation Yrotation Xrotation
				JOINT RightToe
				{
					OFFSET -0.025372 -0.048144 0.123348
					CHANNELS 3 Zrotation Yrotation Xrotation
					End Site
					{
						OFFSET 0.000000 0.000000 0.000000
					}
				}
			}
		}
	}
	JOINT Spine
	{
		OFFSET -0.002533 0.108963 -0.026696
		CHANNELS 3 Zrotation Yrotation Xrotation
		JOINT Spine1
		{
			OFFSET 0.005487 0.135180 0.001092
			CHANNELS 3 Zrotation Yrotation Xrotation
			JOINT Spine2
			{
				OFFSET 0.001457 0.052922 0.025425
				CHANNELS 3 Zrotation Yrotation Xrotation
				JOINT Neck
				{
					OFFSET -0.002778 0.213870 -0.042857
					CHANNELS 3 Zrotation Yrotation Xrotation
					JOINT Head
					{
						OFFSET 0.005152 0.064970 0.051349
						CHANNELS 3 Zrotation Yrotation Xrotation
						End Site
						{
							OFFSET 0.000000 0.000000 0.000000
						}
					}
				}
				JOINT LeftShoulder
				{
					OFFSET 0.078845 0.121749 -0.034090
					CHANNELS 3 Zrotation Yrotation Xrotation
					JOINT LeftArm
					{
						OFFSET 0.090977 0.030469 -0.008868
						CHANNELS 3 Zrotation Yrotation Xrotation
						JOINT LeftForeArm
						{
							OFFSET 0.259612 -0.012772 -0.027456
							CHANNELS 3 Zrotation Yrotation Xrotation
							JOINT LeftHand
							{
								OFFSET 0.249234 0.008986 -0.001171
								CHANNELS 3 Zrotation Yrotation Xrotation
								End Site
								{
									OFFSET 0.000000 0.000000 0.000000
								}
							}
						}
					}
				}
				JOINT RightShoulder
				{
					OFFSET -0.081759 0.118833 -0.038615
					CHANNELS 3 Zrotation Yrotation Xrotation
					JOINT RightArm
					{
						OFFSET -0.096012 0.032551 -0.009143
						CHANNELS 3 Zrotation Yrotation Xrotation
						JOINT RightForeArm
						{
							OFFSET -0.253742 -0.013329 -0.021401
							CHANNELS 3 Zrotation Yrotation Xrotation
							JOINT RightHand
							{
								OFFSET -0.255298 0.007772 -0.005559
								CHANNELS 3 Zrotation Yrotation Xrotation
								End Site
								{
									OFFSET 0.000000 0.000000 0.000000
								}
							}
						}
					}
				}
			}
		}
	}
}
MOTION
Frames: 6
Frame Time: 0.050000
0.000000 0.973941 0.000000 -0.440144 -1.154986 1.795003 2.162940 0.071454 1.391122 -0.354854 0.115870 -2.485505 -1.219512 -2.180721 0.872912 0.000000 0.000000 0.000000 -0.354763 -0.005056 0.157237 -0.521112 0.092249 0.858388 0.708890 0.754759 1.868126 0.000000 0.000000 0.000000 -3.287845 0.001007 3.855092 5.433790 -0.692296 -24.350895 0.239130 1.273431 24.527164 -0.605728 1.643708 -17.817425 0.000000 0.000000 0.000000 -0.115144 0.493013 -0.183279 -1.837888 -26.979280 -1.788217 105.491669 -32.524843 -40.466956 0.000000 0.000000 0.000000 -11.269769 6.988188 2.000114 7.851393 25.154531 -0.974563 -98.189058 29.907108 -30.378528 0.000000 0.000000 0.000000 
-0.002209 0.973201 0.002818 -1.112110 -1.216906 2.216356 3.112312 0.035801 1.266888 -0.414318 0.139647 -3.097305 -1.258339 -2.082422 1.236543 0.000000 0.000000 0.000000 0.463746 -0.044469 0.288091 -0.764614 0.088234 0.200250 1.021885 1.481525 1.939808 0.000000 0.000000 0.000000 -3.411535 0.019897 3.020178 5.603141 -0.728504 -24.396108 1.186818 1.353380 24.628146 -1.771622 2.449787 -18.104110 0.000000 0.000000 0.000000 -1.008274 0.356936 -0.181371 -0.895273 -29.658392 -2.100242 104.478723 -32.300142 -39.595502 0.000000 0.000000 0.000000 -10.770797 6.157358 1.810064 8.233251 24.248369 -0.959015 -101.697128 30.833168 -33.263456 0.000000 0.000000 0.000000 
-0.003815 0.973724 0.004833 -0.764134 -2.132773 2.104363 3.018666 0.033325 1.079023 -0.626511 0.123395 -1.873668 -1.061383 -1.922612 0.744245 0.000000 0.000000 0.000000 0.019713 -0.036992 0.359851 -0.596506 0.049214 -0.247649 1.409465 1.951445 2.694956 0.000000 0.000000 0.000000 -3.298726 0.016820 2.940015 6.243313 -0.792411 -25.579815 -0.095065 2.270810 26.705465 -0.456830 1.638687 -18.242748 0.000000 0.000000 0.000000 -0.256820 0.995590 -0.373266 -0.478891 -31.126298 -2.352304 102.222455 -33.607335 -39.861580 0.000000 0.000000 0.000000 -9.652672 6.157129 1.763659 9.280928 24.753306 -0.925258 -104.662758 30.450840 -34.226282 0.000000 0.000000 0.000000 
-0.005031 0.974990 0.005964 -0.690190 -1.713752 2.653951 2.834769 0.018119 0.891901 -0.316385 0.106370 -2.292385 -1.205926 -2.186154 0.822503 0.000000 0.000000 0.000000 0.282213 -0.001671 -0.080101 -0.779129 0.073259 -0.133016 1.089564 1.245192 2.616576 0.000000 0.000000 0.000000 -3.918256 0.054778 2.155995 6.924498 -1.027313 -24.543566 -0.799137 0.989719 26.236374 -0.325640 1.365993 -17.911555 0.000000 0.000000 0.000000 0.028290 1.618465 -0.576830 -0.514253 -31.817809 -2.352372 101.558994 -35.262495 -40.771540 0.000000 0.000000 0.000000 -10.026979 6.184532 1.867004 9.644370 25.937066 -0.895414 -104.829773 31.141359 -35.666463 0.000000 0.000000 0.000000 
-0.005543 0.976535 0.006276 -0.654838 -2.311571 2.644100 2.840436 0.021404 0.884422 -0.659929 0.135671 -2.193188 -0.877284 -1.319886 1.205236 0.000000 0.000000 0.000000 0.347908 0.009035 -0.211620 -1.085387 0.100825 -0.175158 1.449779 1.756109 3.181491 0.000000 0.000000 0.000000 -4.318378 0.070463 2.365486 7.478951 -1.226172 -23.896517 -0.815150 1.435916 25.404729 -0.297597 1.309718 -16.774090 0.000000 0.000000 0.000000 0.441614 0.957333 -0.322439 -0.435504 -31.964895 -2.349894 101.391971 -35.604455 -41.011530 0.000000 0.000000 0.000000 -9.543719 6.403949 1.953117 10.382882 25.700344 -0.790188 -105.988784 32.341151 -37.709869 0.000000 0.000000 0.000000 
-0.005299 0.977685 0.005402 -0.702678 -2.211019 3.001601 2.735066 -0.017374 0.333105 -0.493323 0.119201 -2.171474 -0.871530 -1.119536 1.611416 0.000000 0.000000 0.000000 0.369840 0.068441 -0.801284 -1.300220 0.124404 -0.135314 1.708004 2.025912 3.784700 0.000000 0.000000 0.000000 -4.463505 0.080282 2.809499 7.600208 -1.202439 -24.376136 -0.819229 0.807007 25.908434 -0.746198 1.567110 -17.571843 0.000000 0.000000 0.000000 0.359593 1.270698 -0.439408 -0.609653 -32.533290 -2.360878 102.487039 -35.322652 -41.149963 0.000000 0.000000 0.000000 -10.054565 6.672960 2.048022 11.163318 26.362949 -0.729668 -105.651516 32.482576 -37.910414 0.000000 0.000000 0.000000 
